<svg width="34" height="34" viewBox="0 0 34 34" fill="none" xmlns="http://www.w3.org/2000/svg">
<path fill-rule="evenodd" clip-rule="evenodd" d="M10.1057 23.8943C7.4697 21.2583 7.4697 16.9844 10.1057 14.3484L15.7626 8.6915C17.6176 6.83651 20.6251 6.83651 22.4801 8.6915C24.3351 10.5465 24.3351 13.554 22.4801 15.409L16.7222 21.1669C15.6483 22.2408 13.9071 22.2408 12.8331 21.1669C11.7592 20.0929 11.7592 18.3517 12.8331 17.2778L18.389 11.722C18.6819 11.4291 19.1568 11.4291 19.4496 11.722C19.7425 12.0148 19.7425 12.4897 19.4496 12.7826L13.8938 18.3385C13.4057 18.8266 13.4057 19.6181 13.8938 20.1062C14.382 20.5944 15.1734 20.5944 15.6616 20.1062L21.4194 14.3484C22.6886 13.0791 22.6886 11.0214 21.4194 9.75216C20.1502 8.48295 18.0925 8.48295 16.8232 9.75216L11.1664 15.409C9.11614 17.4593 9.11614 20.7834 11.1664 22.8336C13.2166 24.8839 16.5408 24.8839 18.591 22.8336L24.0458 17.3788C24.3387 17.0859 24.8136 17.0859 25.1065 17.3788C25.3994 17.6717 25.3994 18.1466 25.1065 18.4395L19.6517 23.8943C17.0156 26.5303 12.7418 26.5303 10.1057 23.8943Z" fill="black"/>
</svg>
