<svg width="24" height="24" viewBox="0 0 24 24" fill="none" xmlns="http://www.w3.org/2000/svg">
<path d="M16.0658 8.99481C16.3587 8.70191 16.3587 8.22704 16.0658 7.93415C15.773 7.64125 15.2981 7.64125 15.0052 7.93415L12 10.9393L8.99479 7.93415C8.70189 7.64125 8.22702 7.64125 7.93413 7.93415C7.64123 8.22704 7.64123 8.70191 7.93413 8.99481L10.9393 12L7.93412 15.0052C7.64122 15.2981 7.64122 15.773 7.93412 16.0659C8.22701 16.3588 8.70188 16.3588 8.99478 16.0659L12 13.0607L15.0052 16.0659C15.2981 16.3588 15.773 16.3588 16.0659 16.0659C16.3587 15.773 16.3587 15.2981 16.0659 15.0052L13.0606 12L16.0658 8.99481Z" fill="black"/>
</svg>
